<svg xmlns="http://www.w3.org/2000/svg" viewBox="0 0 256 256">
  <defs>
    <linearGradient id="g" x1="0" x2="1" y1="0" y2="1">
      <stop offset="0" stop-color="#3B82F6"/>
      <stop offset="1" stop-color="#06B6D4"/>
    </linearGradient>
  </defs>
  <rect width="256" height="256" rx="48" fill="url(#g)"/>
  <g fill="#fff">
    <path d="M64 168h64a8 8 0 0 0 8-8v-16h-32a8 8 0 0 1-8-8v-16h-32a8 8 0 0 0-8 8v40a8 8 0 0 0 8 8z" opacity=".85"/>
    <path d="M112 88h80a8 8 0 0 1 8 8v64a8 8 0 0 1-8 8h-56l-24 24v-24h-16a8 8 0 0 1-8-8v-56a16 16 0 0 1 16-16z"/>
  </g>
</svg>